<mxfile host="app.diagrams.net" modified="2022-03-19T08:44:50.477Z" agent="5.0 (Windows NT 10.0; Win64; x64) AppleWebKit/537.36 (KHTML, like Gecko) Chrome/99.0.4844.51 Safari/537.36 Edg/99.0.1150.36" etag="1yvRV4HPpv7Fq7LH4MUP" version="17.1.3" type="github">
  <diagram id="ofBSy0VggGwG77FwHbE4" name="Page-1">
    <mxGraphModel dx="1422" dy="762" grid="1" gridSize="10" guides="1" tooltips="1" connect="1" arrows="1" fold="1" page="1" pageScale="1" pageWidth="827" pageHeight="1169" math="0" shadow="0">
      <root>
        <mxCell id="0" />
        <mxCell id="1" parent="0" />
        <mxCell id="iiiPy41FcM-OvEsrPJ2S-7" value="BTP" style="rounded=0;whiteSpace=wrap;html=1;horizontal=1;labelPosition=center;verticalLabelPosition=top;align=center;verticalAlign=bottom;" parent="1" vertex="1">
          <mxGeometry x="770" y="520" width="620" height="700" as="geometry" />
        </mxCell>
        <mxCell id="iiiPy41FcM-OvEsrPJ2S-4" value="Business Application &#xa;Studio" style="shape=image;verticalLabelPosition=bottom;labelBackgroundColor=default;verticalAlign=top;aspect=fixed;imageAspect=0;image=data:image/png,iVBORw0KGgoAAAANSUhEUgAAAOEAAADhCAMAAAAJbSJIAAAAz1BMVEX///8KbtEFO3AAZc8AYs4AOW8AZ88AatAAbNEAN24AY87B0u8AI2QAaNAANGwAYM4ALmkAJ2YALGgAIGMAJWX4+/4AHmLp8foAKmjg5evf6vjx9vy4wtDu8fUAMWoAG2GQtObY5fZmfZzK2/PL091Qa5Cptcabu+h/qeI4gdYaddMse9VOjNpXkduMnLMVRHaxyu1DYYlwhaIjTHtmmt20zO4yVYHQ1+CAkquHruSVpLmQn7V3pOFfltxChtjN1d8AVssAD109X4kAAFdOaY5PtA2HAAAN50lEQVR4nO1deV/qTA+1QGmL7FApIhU3cNfrirjc5/r6/T/T2yJiO8kkUyhi++v5U+lySDNJTjJlYyNDhgwZMmTIkCFDhgwZMmT4UYwO1n0Hq8bgv5d138KKMSgWtXSbcVDUtMKdve7bWCF8hlrF2Fz3fawOU4aeGS96676TVWHGUDOK1+u+lRXhi6Fmls47676ZlWBQ0b5glEbrvptVIMDQM+PJ3rrvJ348BRh6HAtP676h2BFmqGnF07SZUWTomTFlaRxg6JlRS1X8P4YMU5bGHRsIQ80w7td9Y7EBZ+iZMTXx/0XCUDPyKYn/UoaamT/ZXvfdxQE5Qz9wDNZ9ezFgVDPlFLX8WQri/95pkaBoFo7XfYMx4Ik0Y/E0BTLO3lmeMmPtJQXxf0CasWKmII3bPqHMqBVeUyDj0IuqYaRAxunQZkyFjDOqEeE/HWlc561EPKpmKYlpnC0Eu+sCZcYkpnG9/4ScpXNOmTGBMo6dBznLdZE2Y8JkHDvv5yzhv/UuCgRFLWHdODuP3fN9hTZjkmScKUOYevZea5QZKwmScexZlAep56ZJmVErXCQl/tvzPKbwGjajTZsxMd24b4bePQuP3qaGaalzb0xI/O8Fc1GxEWzfkdm4mYg0LsTQSz2FR+9AoySORMg4vZLw6AkVhP1Cm/H3yzgCQ6QRfEAqVb9fxumIDJEV5LhAmvGXyziQoc9xEP4QY8bK+rtxj/J/YQyRFYQ247plnO7R1tWh7J84Q9jPp3VjzaisL/53j3arOX1rv4//W8IQKQSfGDO+rSeN6++Xqzkfbn2IfkDK0FtBhEBA68brkXH64103N4PeeO8iH5EzRIqqAb2o/nga1x87c34+qu1L+KEOqecXhECwfUJ8IT7Hn5zGsS+dei4MvQlXnG2ygICBYESqOD8p40zqIr8px/K+GJ2vyXIejmXQguOPxf+J1UT4TVccd0f4bO+CMaMpFFUjUnD8ERlnqDu6hKBnxvaHGDg2TaoOhEUVIzhqtRXLOMMrgt90xXEmwiFMHQjjOa0ba4Zo9jixc9Wg+flm/PcuHsZknmC6pnfBxP9VtXF2HhT4ORYW/I8ZMxaFeE7rxvDzseDwoW1x/HLNqviMzsCkLGbpDZiR/nzs8f/xT5nlp7uNZ/kqQKcsMC27N0gzxtzGeTxqKfArjyUJ+Ce2T/KR0jJGcIxTxukezRJsCtX2jcivL/5hlKfNUhuEP79pkIEGZO+L8ttvKfDb2geZ96TpiItO55z0LmAWL9DQFI3lF9X+jQI/q3wE+A2rXmLXeBD/zqRxZk3Irind2CjdLU2wP267CvzegZCxM0sMrPKz8B+mK6MVoRlx7zVqr0svp/Z4y+UDYOMBlBSHt/PAqTtXf4X/0nI+bDii+YJRuFie32W9zvKzGldiri0GFr18I4QQLo0DIinQjY3a+fLr6KSJFUiC/ZwrkMB0YWBx6+K3wKRxoEgKf96sXSzPbygtkAJoViG/fSywIBUHk8ZVxCLp+/NmIQb7DXNN9vnM1R1xEfEWpi3Jwltti9kck8aBImnvrPhpP5Efpg8x2OEKJB+uMxYTNPuyIV94dQcEDiaNA73up4JpFt4E2x4+jCPzu+ULCC/AgwTGVzbIA62WKFUxaRzQuve0E4Hf40cLPkk0DpX4lWECM6zyjutYYuAYcUUSqXVPs8m6pJjB8fjOFxA5awsmMEoPdt2ZAMMzaZy3qkhbFjM5uolr0TiG/xT4lf+ABEbJ8PU6/jhd00WSUcNr3fmiFonhJRsBsQTm7x++MvYqx0tZ5cilcWJt7MO+bH4tag7IOAiMmRxUb9yC0yEBHuMHFt4gaDUOKSCC2UhD2vhCsE9WEbqTAw9EHw3wAlxYOQqg2vn5U3G1GeacwNkbRPsS4J2yBpLA9G9UKmOkcoSQpXF5TeQnyn2RGF5J1wu9Dhdl+9LhKysssODAGoiQ3yGQ+9pRchqZQXS3DNeJSZXPzKtbR+rfsJfGhTkWTXEZxeSwcgSGfUlO4jagH3mZOV9ZlT+iPEHhzpMJ+XmLGmKDMuPjoTM0UDvswha2ivRtlWFg4dA5mXE0i6WR8NTIFrVWhCmGxzbCD1FgVAK8FzijxKk5PrXuYnEg8gv0m8PYinD2HUc8GktgHhUCPFb5K6J3UaiUngS7BAI8QCvCyYcCQ6v9Dp4zpQCPVP4RcH0sPnek3NCMcOpJ6DxYAqMS4PUm2ppZHOEADy5nRThVMGnz7AD5jRWk06YbqZphwS1q+lWEkwWSNiRBsy956dRLDIjWzAKAAV6E9RDhdEdfDJEEhq3gc5+tmVj5qfS7qn8inPDh83RuEyYwKhW8V0BECL48lPpBbiOKU+R8I7m78D5VKvjqLldARINS1RL1omU/wMNDVKQp9QRbDf0bmSy5zEX7rWoLHvJXxRdaMPFZBlSAX+ai3f/BQkAlwFutCAWEClT6CQtdtAsTGAVfsMrvokS4HIY5flHzssk4LqrSG7Xa0QsIEiqL2iJVCwJ7TEj0M2CJ3VI4fGivrGoRgQ8frpaf0kDL4lVLCEP35/n9QNUyh4IvYMriUlCqWhxE7tuP/j2rKBSx8xvvKlQtFkjQvON2ozL8+877ejNau4eFkixZb05Av9KfNI8keU/bcawvyDosC0MhwOt1WA3Yz2X/uHaUwN/db3PPiu460g7LYlAI8DpWtUzcTzkzilwq7cEHLsXM5kWGQlaPXvRbrm1HuKEqdy2+wxIRfAWPDgSGJrEd9VuSKd7zS+3GWyB5AZ53euyint0Dx9UjMET04MClEGV4KahU8KgcLdi9qr4sdAmGVgsqw0tBJcBbLdj2ANWqnlO/6CHatZheClG+l5qaU6ngsQIJCWZRxESo6c8uhRRIndfa+cIc7TEf4LGLotWqdat+4SEal7AEu/NSMzSjdrxYYFQJ8KjcjtpdjyCXXiJfLKZ8915KxqyBucDW1aHOBnisrdO/kVSrFti9IscN+IqwAqL3VPqemyidRdxlpVS1wALJHrdlk7zVD/Wrg0EMpMNi+z/IERwEKbxGGLRWSWCwdsJzUx6qq/vq138IL1NeLg8+MqgUxWkCIz9QPL9XtXABXsfaOl4CShxSvVFnmAt+T/U6TLBHFWwgxFR7PffjB6tQ6HUXVi3DKj0v4EaYvSx/X8rdgrnutSYdeC2wkUNFlsTmPXi/dZHNxxLYrflBSK67eUrtQWb2rvZv+AoeGchVUhua6gy7Mxtiyv72KT2U7c/zSiOHiizptuCXqqQsOrp6if84TdokI1oH9DZyH3lJ5Jg02L5jFeGnUnjk6pH6zX5a6uXysgT7XgPLqPioYpFDYeQf6yB5hYfCwGNEuWHYZAqIQYned+5vYxmED7Fv//H2gwVSF0/Qwojeb57845oBvTt6tl5DfthhQifZVhsWSGoDj23Zu0YIhlB3vBeDwB7vjoW38G4Ibx2VPm9WGc7rKG0li6lfuXlWgOXDNf1yLm0aOcIDP90/ZfRRxQaq/XmP+AcCcRy8+Y8kLB/sJ/JVuT4qhjBUuGPBegntsDy7ClvJ4unn7b19BUAYBDrMXnn/IHHv2bPgjlhV5hWOfGs0pn7QdpCDWQNB4OCMc0dTfLNjfz8Q3rw4Ddse9GzX7MBmLP2S7TvhOTRqT8AdTc4dDXG369+5RoZ0WHx+/I6NeAbm5hV8EIg7HtOvrvAP0oSNWcOq72XYvJXKPIted+IYKOsdS8I65o5crqqJP0Jmj8sOMm+lkoAuEOAx2E9F6c4OE2679dyRTeTuwpGjDzpkSq1tdJBpAX6DIpl6GgXgjqMC/eYZ/g0dKq1txR0bCrhnXrGiFcF74XovXOQwQeQI8lN5l0FMAf4TAy6aQ3fce2M51iTvBFZKQOMe2Okx28j92xXdcfOU3giKhptpwsonoLEPfGzw+481owSS1RFbVxXB7p6blgI/Jxc7Px9sNC+Cras9+k2yPsTIobDExD0R/w02mptQ6957YxO5mhA5Dm/JEXxMr40P2+fR3ZGXOQxxo89QOjquu+14J8YhvOWDud0CcMcB/Xod/3sRFAAvyUFXU6x3Hz+YV9957iiWgRsdbiXOA3Ucc8fYAjwHXpbJn4p3zMgckOF0m1iIH/Yyn5Vhj6sDTajn3xuEO2IM/e1WboDfQ7wTxxxYWQaoMqQ74gw3Nr7c0YppODYKeFmmUgHu+CpzRxnDje5HWceljR8AXwdCd5Q1AaQMfXcsI9LGD4FNPBF3xB9vgqFX6K/z1evMG0jQ9toTkqySDNcLPnJUQKmLqI6/mKGCoG8i7ijWKb+aoUrkKLwBdwzXKb+cof+Dopw7ii/o9uqU4DG/nqGCoF8Rf6AjdMzvZ+i/goSLHIg7zqccksDQn6phFEQTji2OZq8hTQZDBQXRKEF3nNZiCWHoRw76NatYdJzKBolhOJUsmEcVc8d8KTkMVSIH4o7/JYmhQuQwQO3YS8QvqX3jgJx1m7ojkHKShpHBtYKhOyYM4aQMdUd+NPOXgxWPEXdMGjZPObEbSjlJw4CdWki8O7JtxxS4IyjnMXf81b/yx4MfIqok4ndFCShEDrH3lDhsnzOJXIJqCxmYyJEChl7koMTjVDAkxeN0MKTE47QwlEeO9DCURY4UMZy+TR558XGaGPq/JgPE45QxRNqOqWMIao70MRQjRxoZhiNHOhkGB1ZSyjCwBye1DOcDKylmOGs7pprhdFI63Qz9Selk9Z4WwXXqGWbIkCFDhgwZMmTIkCFDht+F/wNOwmVNT4cBgQAAAABJRU5ErkJggg==;" parent="1" vertex="1">
          <mxGeometry x="1230" y="811" width="143" height="143" as="geometry" />
        </mxCell>
        <mxCell id="iiiPy41FcM-OvEsrPJ2S-10" value="On-Premise" style="rounded=0;whiteSpace=wrap;html=1;horizontal=1;labelPosition=center;verticalLabelPosition=top;align=center;verticalAlign=bottom;" parent="1" vertex="1">
          <mxGeometry x="70" y="520" width="590" height="340" as="geometry" />
        </mxCell>
        <mxCell id="iiiPy41FcM-OvEsrPJ2S-11" value="SAP Cloud Connector - Location A" style="rounded=0;whiteSpace=wrap;html=1;labelPosition=center;verticalLabelPosition=top;align=center;verticalAlign=bottom;" parent="1" vertex="1">
          <mxGeometry x="350" y="560" width="260" height="260" as="geometry" />
        </mxCell>
        <mxCell id="iiiPy41FcM-OvEsrPJ2S-12" value="Cloud To On-Premise" style="rounded=0;whiteSpace=wrap;html=1;labelPosition=center;verticalLabelPosition=top;align=center;verticalAlign=bottom;" parent="1" vertex="1">
          <mxGeometry x="400" y="610" width="180" height="180" as="geometry" />
        </mxCell>
        <mxCell id="iiiPy41FcM-OvEsrPJ2S-13" value="Virtual Host" style="rounded=0;whiteSpace=wrap;html=1;" parent="1" vertex="1">
          <mxGeometry x="520" y="628" width="50" height="40" as="geometry" />
        </mxCell>
        <mxCell id="iiiPy41FcM-OvEsrPJ2S-17" style="edgeStyle=orthogonalEdgeStyle;rounded=0;orthogonalLoop=1;jettySize=auto;html=1;endArrow=none;endFill=0;entryX=1;entryY=0.5;entryDx=0;entryDy=0;entryPerimeter=0;" parent="1" source="iiiPy41FcM-OvEsrPJ2S-14" target="iiiPy41FcM-OvEsrPJ2S-1" edge="1">
          <mxGeometry relative="1" as="geometry" />
        </mxCell>
        <mxCell id="iiiPy41FcM-OvEsrPJ2S-18" style="edgeStyle=orthogonalEdgeStyle;rounded=0;orthogonalLoop=1;jettySize=auto;html=1;endArrow=none;endFill=0;" parent="1" source="iiiPy41FcM-OvEsrPJ2S-14" target="iiiPy41FcM-OvEsrPJ2S-13" edge="1">
          <mxGeometry relative="1" as="geometry" />
        </mxCell>
        <mxCell id="iiiPy41FcM-OvEsrPJ2S-28" style="edgeStyle=orthogonalEdgeStyle;rounded=0;orthogonalLoop=1;jettySize=auto;html=1;endArrow=none;endFill=0;entryX=1;entryY=0.5;entryDx=0;entryDy=0;entryPerimeter=0;" parent="1" source="QT6xcJcBPnsWhAW0xrK4-4" target="iiiPy41FcM-OvEsrPJ2S-27" edge="1">
          <mxGeometry relative="1" as="geometry" />
        </mxCell>
        <mxCell id="iiiPy41FcM-OvEsrPJ2S-14" value="Internal Host" style="rounded=0;whiteSpace=wrap;html=1;" parent="1" vertex="1">
          <mxGeometry x="417.5" y="628" width="50" height="40" as="geometry" />
        </mxCell>
        <mxCell id="iiiPy41FcM-OvEsrPJ2S-1" value="SAP-System S4A" style="fontColor=#0066CC;verticalAlign=top;verticalLabelPosition=bottom;labelPosition=center;align=center;html=1;outlineConnect=0;fillColor=#CCCCCC;strokeColor=#6881B3;gradientColor=none;gradientDirection=north;strokeWidth=2;shape=mxgraph.networks.server;" parent="1" vertex="1">
          <mxGeometry x="120" y="566" width="90" height="100" as="geometry" />
        </mxCell>
        <mxCell id="iiiPy41FcM-OvEsrPJ2S-19" value="Cloud Connectors" style="rounded=0;whiteSpace=wrap;html=1;labelPosition=center;verticalLabelPosition=top;align=center;verticalAlign=bottom;" parent="1" vertex="1">
          <mxGeometry x="800" y="560" width="260" height="620" as="geometry" />
        </mxCell>
        <mxCell id="iiiPy41FcM-OvEsrPJ2S-21" style="edgeStyle=orthogonalEdgeStyle;rounded=0;orthogonalLoop=1;jettySize=auto;html=1;entryX=1;entryY=0.5;entryDx=0;entryDy=0;endArrow=none;endFill=0;" parent="1" source="iiiPy41FcM-OvEsrPJ2S-20" target="iiiPy41FcM-OvEsrPJ2S-13" edge="1">
          <mxGeometry relative="1" as="geometry" />
        </mxCell>
        <mxCell id="QT6xcJcBPnsWhAW0xrK4-5" style="edgeStyle=orthogonalEdgeStyle;rounded=0;orthogonalLoop=1;jettySize=auto;html=1;entryX=1;entryY=0.5;entryDx=0;entryDy=0;endArrow=none;endFill=0;" edge="1" parent="1" source="iiiPy41FcM-OvEsrPJ2S-20" target="QT6xcJcBPnsWhAW0xrK4-3">
          <mxGeometry relative="1" as="geometry" />
        </mxCell>
        <mxCell id="iiiPy41FcM-OvEsrPJ2S-20" value="Cloud Connector - Location A" style="rounded=0;whiteSpace=wrap;html=1;labelPosition=center;verticalLabelPosition=middle;align=center;verticalAlign=middle;" parent="1" vertex="1">
          <mxGeometry x="827" y="668" width="63" height="60" as="geometry" />
        </mxCell>
        <mxCell id="iiiPy41FcM-OvEsrPJ2S-26" style="edgeStyle=orthogonalEdgeStyle;rounded=0;orthogonalLoop=1;jettySize=auto;html=1;endArrow=none;endFill=0;entryX=1;entryY=0.5;entryDx=0;entryDy=0;" parent="1" source="iiiPy41FcM-OvEsrPJ2S-22" target="iiiPy41FcM-OvEsrPJ2S-20" edge="1">
          <mxGeometry relative="1" as="geometry" />
        </mxCell>
        <mxCell id="iiiPy41FcM-OvEsrPJ2S-22" value="Destination S4A" style="rounded=0;whiteSpace=wrap;html=1;labelPosition=center;verticalLabelPosition=middle;align=center;verticalAlign=middle;" parent="1" vertex="1">
          <mxGeometry x="957" y="606" width="63" height="60" as="geometry" />
        </mxCell>
        <mxCell id="iiiPy41FcM-OvEsrPJ2S-27" value="SAP-System JED" style="fontColor=#0066CC;verticalAlign=top;verticalLabelPosition=bottom;labelPosition=center;align=center;html=1;outlineConnect=0;fillColor=#CCCCCC;strokeColor=#6881B3;gradientColor=none;gradientDirection=north;strokeWidth=2;shape=mxgraph.networks.server;" parent="1" vertex="1">
          <mxGeometry x="120" y="727" width="90" height="100" as="geometry" />
        </mxCell>
        <mxCell id="iiiPy41FcM-OvEsrPJ2S-29" value="On-Premise" style="rounded=0;whiteSpace=wrap;html=1;horizontal=1;labelPosition=center;verticalLabelPosition=top;align=center;verticalAlign=bottom;" parent="1" vertex="1">
          <mxGeometry x="70" y="880" width="590" height="340" as="geometry" />
        </mxCell>
        <mxCell id="iiiPy41FcM-OvEsrPJ2S-30" value="SAP Cloud Connector - Location B" style="rounded=0;whiteSpace=wrap;html=1;labelPosition=center;verticalLabelPosition=top;align=center;verticalAlign=bottom;" parent="1" vertex="1">
          <mxGeometry x="350" y="950" width="260" height="230" as="geometry" />
        </mxCell>
        <mxCell id="iiiPy41FcM-OvEsrPJ2S-31" value="Cloud To On-Premise" style="rounded=0;whiteSpace=wrap;html=1;labelPosition=center;verticalLabelPosition=top;align=center;verticalAlign=bottom;" parent="1" vertex="1">
          <mxGeometry x="400" y="1000" width="180" height="140" as="geometry" />
        </mxCell>
        <mxCell id="iiiPy41FcM-OvEsrPJ2S-32" value="Virtual Host" style="rounded=0;whiteSpace=wrap;html=1;" parent="1" vertex="1">
          <mxGeometry x="520" y="1010" width="50" height="40" as="geometry" />
        </mxCell>
        <mxCell id="iiiPy41FcM-OvEsrPJ2S-33" style="edgeStyle=orthogonalEdgeStyle;rounded=0;orthogonalLoop=1;jettySize=auto;html=1;endArrow=none;endFill=0;entryX=1;entryY=0.5;entryDx=0;entryDy=0;entryPerimeter=0;" parent="1" source="iiiPy41FcM-OvEsrPJ2S-36" target="iiiPy41FcM-OvEsrPJ2S-37" edge="1">
          <mxGeometry relative="1" as="geometry" />
        </mxCell>
        <mxCell id="iiiPy41FcM-OvEsrPJ2S-34" style="edgeStyle=orthogonalEdgeStyle;rounded=0;orthogonalLoop=1;jettySize=auto;html=1;endArrow=none;endFill=0;" parent="1" source="iiiPy41FcM-OvEsrPJ2S-36" target="iiiPy41FcM-OvEsrPJ2S-32" edge="1">
          <mxGeometry relative="1" as="geometry" />
        </mxCell>
        <mxCell id="iiiPy41FcM-OvEsrPJ2S-35" style="edgeStyle=orthogonalEdgeStyle;rounded=0;orthogonalLoop=1;jettySize=auto;html=1;endArrow=none;endFill=0;entryX=1;entryY=0.5;entryDx=0;entryDy=0;entryPerimeter=0;exitX=0;exitY=0.5;exitDx=0;exitDy=0;" parent="1" source="QT6xcJcBPnsWhAW0xrK4-10" target="iiiPy41FcM-OvEsrPJ2S-38" edge="1">
          <mxGeometry relative="1" as="geometry" />
        </mxCell>
        <mxCell id="iiiPy41FcM-OvEsrPJ2S-36" value="Internal Host" style="rounded=0;whiteSpace=wrap;html=1;" parent="1" vertex="1">
          <mxGeometry x="417.5" y="1010" width="50" height="40" as="geometry" />
        </mxCell>
        <mxCell id="iiiPy41FcM-OvEsrPJ2S-37" value="SAP-System SBS" style="fontColor=#0066CC;verticalAlign=top;verticalLabelPosition=bottom;labelPosition=center;align=center;html=1;outlineConnect=0;fillColor=#CCCCCC;strokeColor=#6881B3;gradientColor=none;gradientDirection=north;strokeWidth=2;shape=mxgraph.networks.server;" parent="1" vertex="1">
          <mxGeometry x="120" y="926" width="90" height="100" as="geometry" />
        </mxCell>
        <mxCell id="iiiPy41FcM-OvEsrPJ2S-38" value="SAP-System SED" style="fontColor=#0066CC;verticalAlign=top;verticalLabelPosition=bottom;labelPosition=center;align=center;html=1;outlineConnect=0;fillColor=#CCCCCC;strokeColor=#6881B3;gradientColor=none;gradientDirection=north;strokeWidth=2;shape=mxgraph.networks.server;" parent="1" vertex="1">
          <mxGeometry x="120" y="1087" width="90" height="100" as="geometry" />
        </mxCell>
        <mxCell id="iiiPy41FcM-OvEsrPJ2S-40" style="edgeStyle=orthogonalEdgeStyle;rounded=0;orthogonalLoop=1;jettySize=auto;html=1;entryX=1;entryY=0.5;entryDx=0;entryDy=0;endArrow=none;endFill=0;" parent="1" source="iiiPy41FcM-OvEsrPJ2S-39" target="iiiPy41FcM-OvEsrPJ2S-32" edge="1">
          <mxGeometry relative="1" as="geometry" />
        </mxCell>
        <mxCell id="iiiPy41FcM-OvEsrPJ2S-45" style="edgeStyle=orthogonalEdgeStyle;rounded=0;orthogonalLoop=1;jettySize=auto;html=1;entryX=0;entryY=0.5;entryDx=0;entryDy=0;endArrow=none;endFill=0;" parent="1" source="iiiPy41FcM-OvEsrPJ2S-39" target="iiiPy41FcM-OvEsrPJ2S-43" edge="1">
          <mxGeometry relative="1" as="geometry" />
        </mxCell>
        <mxCell id="iiiPy41FcM-OvEsrPJ2S-46" style="edgeStyle=orthogonalEdgeStyle;rounded=0;orthogonalLoop=1;jettySize=auto;html=1;endArrow=none;endFill=0;entryX=0;entryY=0.5;entryDx=0;entryDy=0;" parent="1" source="iiiPy41FcM-OvEsrPJ2S-39" target="iiiPy41FcM-OvEsrPJ2S-44" edge="1">
          <mxGeometry relative="1" as="geometry" />
        </mxCell>
        <mxCell id="QT6xcJcBPnsWhAW0xrK4-11" style="edgeStyle=orthogonalEdgeStyle;rounded=0;orthogonalLoop=1;jettySize=auto;html=1;entryX=1;entryY=0.5;entryDx=0;entryDy=0;endArrow=none;endFill=0;" edge="1" parent="1" source="iiiPy41FcM-OvEsrPJ2S-39" target="QT6xcJcBPnsWhAW0xrK4-8">
          <mxGeometry relative="1" as="geometry" />
        </mxCell>
        <mxCell id="iiiPy41FcM-OvEsrPJ2S-39" value="Cloud Connector - Location B" style="rounded=0;whiteSpace=wrap;html=1;labelPosition=center;verticalLabelPosition=middle;align=center;verticalAlign=middle;" parent="1" vertex="1">
          <mxGeometry x="827" y="1040" width="63" height="60" as="geometry" />
        </mxCell>
        <mxCell id="iiiPy41FcM-OvEsrPJ2S-42" style="edgeStyle=orthogonalEdgeStyle;rounded=0;orthogonalLoop=1;jettySize=auto;html=1;entryX=1;entryY=0.5;entryDx=0;entryDy=0;endArrow=none;endFill=0;" parent="1" source="iiiPy41FcM-OvEsrPJ2S-41" target="iiiPy41FcM-OvEsrPJ2S-20" edge="1">
          <mxGeometry relative="1" as="geometry" />
        </mxCell>
        <mxCell id="iiiPy41FcM-OvEsrPJ2S-41" value="Destination JED" style="rounded=0;whiteSpace=wrap;html=1;labelPosition=center;verticalLabelPosition=middle;align=center;verticalAlign=middle;" parent="1" vertex="1">
          <mxGeometry x="957" y="727" width="63" height="60" as="geometry" />
        </mxCell>
        <mxCell id="iiiPy41FcM-OvEsrPJ2S-43" value="Destination SBS" style="rounded=0;whiteSpace=wrap;html=1;labelPosition=center;verticalLabelPosition=middle;align=center;verticalAlign=middle;" parent="1" vertex="1">
          <mxGeometry x="957" y="980" width="63" height="60" as="geometry" />
        </mxCell>
        <mxCell id="iiiPy41FcM-OvEsrPJ2S-44" value="Destination SED" style="rounded=0;whiteSpace=wrap;html=1;labelPosition=center;verticalLabelPosition=middle;align=center;verticalAlign=middle;" parent="1" vertex="1">
          <mxGeometry x="957" y="1100" width="63" height="60" as="geometry" />
        </mxCell>
        <mxCell id="iiiPy41FcM-OvEsrPJ2S-47" style="edgeStyle=orthogonalEdgeStyle;rounded=0;orthogonalLoop=1;jettySize=auto;html=1;entryX=1;entryY=0.5;entryDx=0;entryDy=0;endArrow=none;endFill=0;" parent="1" source="iiiPy41FcM-OvEsrPJ2S-4" target="iiiPy41FcM-OvEsrPJ2S-22" edge="1">
          <mxGeometry relative="1" as="geometry" />
        </mxCell>
        <mxCell id="iiiPy41FcM-OvEsrPJ2S-48" style="edgeStyle=orthogonalEdgeStyle;rounded=0;orthogonalLoop=1;jettySize=auto;html=1;entryX=1;entryY=0.5;entryDx=0;entryDy=0;endArrow=none;endFill=0;" parent="1" source="iiiPy41FcM-OvEsrPJ2S-4" target="iiiPy41FcM-OvEsrPJ2S-41" edge="1">
          <mxGeometry relative="1" as="geometry" />
        </mxCell>
        <mxCell id="iiiPy41FcM-OvEsrPJ2S-49" style="edgeStyle=orthogonalEdgeStyle;rounded=0;orthogonalLoop=1;jettySize=auto;html=1;entryX=1;entryY=0.5;entryDx=0;entryDy=0;endArrow=none;endFill=0;" parent="1" source="iiiPy41FcM-OvEsrPJ2S-4" target="iiiPy41FcM-OvEsrPJ2S-43" edge="1">
          <mxGeometry relative="1" as="geometry" />
        </mxCell>
        <mxCell id="iiiPy41FcM-OvEsrPJ2S-50" style="edgeStyle=orthogonalEdgeStyle;rounded=0;orthogonalLoop=1;jettySize=auto;html=1;entryX=1;entryY=0.5;entryDx=0;entryDy=0;endArrow=none;endFill=0;" parent="1" source="iiiPy41FcM-OvEsrPJ2S-4" target="iiiPy41FcM-OvEsrPJ2S-44" edge="1">
          <mxGeometry relative="1" as="geometry" />
        </mxCell>
        <mxCell id="QT6xcJcBPnsWhAW0xrK4-6" style="edgeStyle=orthogonalEdgeStyle;rounded=0;orthogonalLoop=1;jettySize=auto;html=1;endArrow=none;endFill=0;" edge="1" parent="1" source="QT6xcJcBPnsWhAW0xrK4-3" target="QT6xcJcBPnsWhAW0xrK4-4">
          <mxGeometry relative="1" as="geometry" />
        </mxCell>
        <mxCell id="QT6xcJcBPnsWhAW0xrK4-3" value="Virtual Host" style="rounded=0;whiteSpace=wrap;html=1;" vertex="1" parent="1">
          <mxGeometry x="520" y="739" width="50" height="40" as="geometry" />
        </mxCell>
        <mxCell id="QT6xcJcBPnsWhAW0xrK4-4" value="Internal Host" style="rounded=0;whiteSpace=wrap;html=1;" vertex="1" parent="1">
          <mxGeometry x="417.5" y="739" width="50" height="40" as="geometry" />
        </mxCell>
        <mxCell id="QT6xcJcBPnsWhAW0xrK4-8" value="Virtual Host" style="rounded=0;whiteSpace=wrap;html=1;" vertex="1" parent="1">
          <mxGeometry x="520" y="1090" width="50" height="40" as="geometry" />
        </mxCell>
        <mxCell id="QT6xcJcBPnsWhAW0xrK4-9" style="edgeStyle=orthogonalEdgeStyle;rounded=0;orthogonalLoop=1;jettySize=auto;html=1;endArrow=none;endFill=0;" edge="1" parent="1" source="QT6xcJcBPnsWhAW0xrK4-10" target="QT6xcJcBPnsWhAW0xrK4-8">
          <mxGeometry relative="1" as="geometry" />
        </mxCell>
        <mxCell id="QT6xcJcBPnsWhAW0xrK4-10" value="Internal Host" style="rounded=0;whiteSpace=wrap;html=1;" vertex="1" parent="1">
          <mxGeometry x="417.5" y="1090" width="50" height="40" as="geometry" />
        </mxCell>
      </root>
    </mxGraphModel>
  </diagram>
</mxfile>
